<svg width="20" height="20" viewBox="0 0 20 20" fill="none" xmlns="http://www.w3.org/2000/svg">
<g clip-path="url(#clip0_106_66)">
<path d="M9.78341 14.7917H14.7167C14.6417 14.8583 14.5667 14.9167 14.4917 14.9833L10.9334 17.65C9.75842 18.525 7.84175 18.525 6.65841 17.65L3.09175 14.9833C2.30841 14.4 1.66675 13.1083 1.66675 12.1333V5.95834C1.66675 4.94167 2.44175 3.81667 3.39175 3.45834L7.54175 1.9C8.22508 1.64167 9.35842 1.64167 10.0417 1.9L14.1834 3.45834C14.9751 3.75834 15.6501 4.59167 15.8584 5.44167H9.77508C9.59175 5.44167 9.42508 5.45 9.26675 5.45C7.72508 5.54167 7.32508 6.1 7.32508 7.85834V12.3833C7.33341 14.3 7.82508 14.7917 9.78341 14.7917Z" stroke="#3A38FF" stroke-width="1.66667" stroke-linecap="round" stroke-linejoin="round"/>
<path d="M7.33325 9.35001H18.3333" stroke="#3A38FF" stroke-width="1.66667" stroke-miterlimit="10" stroke-linecap="round" stroke-linejoin="round"/>
<path d="M18.3333 7.84999V12.475C18.3166 14.325 17.8083 14.7833 15.8833 14.7833H9.78325C7.82492 14.7833 7.33325 14.2917 7.33325 12.3667V7.84165C7.33325 6.09165 7.73325 5.53332 9.27492 5.43332C9.43325 5.43332 9.59992 5.42499 9.78325 5.42499H15.8833C17.8416 5.43332 18.3333 5.91665 18.3333 7.84999Z" stroke="#3A38FF" stroke-width="1.66667" stroke-linecap="round" stroke-linejoin="round"/>
<path d="M9.43335 12.7167H10.5417M12.2917 12.7167H15.0167" stroke="#3A38FF" stroke-width="1.66667" stroke-miterlimit="10" stroke-linecap="round" stroke-linejoin="round"/>
</g>
<defs>
<clipPath id="clip0_106_66">
<rect width="20" height="20" fill="white"/>
</clipPath>
</defs>
</svg>
